<?xml version="1.0" encoding="UTF-8" standalone="no"?>
<!-- Created with Inkscape (http://www.inkscape.org/) -->

<svg
   xmlns:dc="http://purl.org/dc/elements/1.1/"
   xmlns:cc="http://creativecommons.org/ns#"
   xmlns:rdf="http://www.w3.org/1999/02/22-rdf-syntax-ns#"
   xmlns:svg="http://www.w3.org/2000/svg"
   xmlns="http://www.w3.org/2000/svg"
   xmlns:xlink="http://www.w3.org/1999/xlink"
   xmlns:sodipodi="http://sodipodi.sourceforge.net/DTD/sodipodi-0.dtd"
   xmlns:inkscape="http://www.inkscape.org/namespaces/inkscape"
   width="744.09448819"
   height="1052.3622047"
   id="svg2"
   version="1.1"
   inkscape:version="0.47 r22583"
   sodipodi:docname="logo_v1r2.svg">
  <defs
     id="defs4">
    <linearGradient
       inkscape:collect="always"
       id="linearGradient3952">
      <stop
         style="stop-color:#ffe680;stop-opacity:1;"
         offset="0"
         id="stop3954" />
      <stop
         style="stop-color:#ffe680;stop-opacity:0;"
         offset="1"
         id="stop3956" />
    </linearGradient>
    <inkscape:path-effect
       effect="skeletal"
       id="path-effect3809"
       is_visible="true"
       pattern="m -16.436597,-5.1364366 0,9.9999998 9.9999996,-5.00000004 z"
       copytype="single_stretched"
       prop_scale="1"
       scale_y_rel="false"
       spacing="0"
       normal_offset="0"
       tang_offset="0"
       prop_units="false"
       vertical_pattern="false"
       fuse_tolerance="0" />
    <inkscape:path-effect
       effect="skeletal"
       id="path-effect3763"
       is_visible="true"
       pattern="M 0,0 0,10 10,5 z"
       copytype="single_stretched"
       prop_scale="1"
       scale_y_rel="false"
       spacing="0"
       normal_offset="0"
       tang_offset="0"
       prop_units="false"
       vertical_pattern="false"
       fuse_tolerance="0" />
    <inkscape:path-effect
       effect="skeletal"
       id="path-effect2883"
       is_visible="true"
       pattern="M 0,5 C 0,2.24 2.24,0 5,0 7.76,0 10,2.24 10,5 10,7.76 7.76,10 5,10 2.24,10 0,7.76 0,5 z"
       copytype="single_stretched"
       prop_scale="1"
       scale_y_rel="false"
       spacing="0"
       normal_offset="0"
       tang_offset="0"
       prop_units="false"
       vertical_pattern="false"
       fuse_tolerance="0" />
    <inkscape:path-effect
       effect="skeletal"
       id="path-effect2879"
       is_visible="true"
       pattern="M 0,5 C 0,2.24 2.24,0 5,0 7.76,0 10,2.24 10,5 10,7.76 7.76,10 5,10 2.24,10 0,7.76 0,5 z"
       copytype="single_stretched"
       prop_scale="1"
       scale_y_rel="false"
       spacing="0"
       normal_offset="0"
       tang_offset="0"
       prop_units="false"
       vertical_pattern="false"
       fuse_tolerance="0" />
    <inkscape:path-effect
       effect="skeletal"
       id="path-effect2875"
       is_visible="true"
       pattern="M 0,5 C 0,2.24 2.24,0 5,0 7.76,0 10,2.24 10,5 10,7.76 7.76,10 5,10 2.24,10 0,7.76 0,5 z"
       copytype="single_stretched"
       prop_scale="1"
       scale_y_rel="false"
       spacing="0"
       normal_offset="0"
       tang_offset="0"
       prop_units="false"
       vertical_pattern="false"
       fuse_tolerance="0" />
    <inkscape:perspective
       sodipodi:type="inkscape:persp3d"
       inkscape:vp_x="0 : 526.18109 : 1"
       inkscape:vp_y="0 : 1000 : 0"
       inkscape:vp_z="744.09448 : 526.18109 : 1"
       inkscape:persp3d-origin="372.04724 : 350.78739 : 1"
       id="perspective2840" />
    <inkscape:perspective
       id="perspective2918"
       inkscape:persp3d-origin="0.5 : 0.33333333 : 1"
       inkscape:vp_z="1 : 0.5 : 1"
       inkscape:vp_y="0 : 1000 : 0"
       inkscape:vp_x="0 : 0.5 : 1"
       sodipodi:type="inkscape:persp3d" />
    <inkscape:perspective
       id="perspective2971"
       inkscape:persp3d-origin="0.5 : 0.33333333 : 1"
       inkscape:vp_z="1 : 0.5 : 1"
       inkscape:vp_y="0 : 1000 : 0"
       inkscape:vp_x="0 : 0.5 : 1"
       sodipodi:type="inkscape:persp3d" />
    <inkscape:perspective
       id="perspective3787"
       inkscape:persp3d-origin="0.5 : 0.33333333 : 1"
       inkscape:vp_z="1 : 0.5 : 1"
       inkscape:vp_y="0 : 1000 : 0"
       inkscape:vp_x="0 : 0.5 : 1"
       sodipodi:type="inkscape:persp3d" />
    <inkscape:perspective
       id="perspective3801"
       inkscape:persp3d-origin="0.5 : 0.33333333 : 1"
       inkscape:vp_z="1 : 0.5 : 1"
       inkscape:vp_y="0 : 1000 : 0"
       inkscape:vp_x="0 : 0.5 : 1"
       sodipodi:type="inkscape:persp3d" />
    <inkscape:perspective
       id="perspective3853"
       inkscape:persp3d-origin="0.5 : 0.33333333 : 1"
       inkscape:vp_z="1 : 0.5 : 1"
       inkscape:vp_y="0 : 1000 : 0"
       inkscape:vp_x="0 : 0.5 : 1"
       sodipodi:type="inkscape:persp3d" />
    <radialGradient
       inkscape:collect="always"
       xlink:href="#linearGradient3952"
       id="radialGradient3958"
       cx="214.70305"
       cy="249.0235"
       fx="214.70305"
       fy="249.0235"
       r="68.828247"
       gradientUnits="userSpaceOnUse" />
    <radialGradient
       inkscape:collect="always"
       xlink:href="#linearGradient3952"
       id="radialGradient3983"
       gradientUnits="userSpaceOnUse"
       cx="214.70305"
       cy="249.0235"
       fx="214.70305"
       fy="249.0235"
       r="68.828247" />
  </defs>
  <sodipodi:namedview
     id="base"
     pagecolor="#ffffff"
     bordercolor="#666666"
     borderopacity="1.0"
     inkscape:pageopacity="0.0"
     inkscape:pageshadow="2"
     inkscape:zoom="1"
     inkscape:cx="380.52714"
     inkscape:cy="872.29668"
     inkscape:document-units="px"
     inkscape:current-layer="layer1"
     showgrid="false"
     showguides="true"
     inkscape:guide-bbox="true"
     inkscape:window-width="1179"
     inkscape:window-height="624"
     inkscape:window-x="162"
     inkscape:window-y="236"
     inkscape:window-maximized="0" />
  <metadata
     id="metadata7">
    <rdf:RDF>
      <cc:Work
         rdf:about="">
        <dc:format>image/svg+xml</dc:format>
        <dc:type
           rdf:resource="http://purl.org/dc/dcmitype/StillImage" />
        <dc:title></dc:title>
      </cc:Work>
    </rdf:RDF>
  </metadata>
  <g
     inkscape:label="Layer 1"
     inkscape:groupmode="layer"
     id="layer1">
    <text
       xml:space="preserve"
       style="font-size:40px;font-style:normal;font-variant:normal;font-weight:normal;font-stretch:normal;line-height:125%;letter-spacing:0px;word-spacing:0px;fill:#000000;fill-opacity:1;stroke:none;font-family:Sawasdee;-inkscape-font-specification:Sawasdee"
       x="55.987156"
       y="88.766678"
       id="text3011"
       sodipodi:linespacing="125%"><tspan
         sodipodi:role="line"
         id="tspan3013"
         x="55.987156"
         y="88.766678"
         style="font-style:normal;font-variant:normal;font-weight:normal;font-stretch:normal;font-family:Sawasdee;-inkscape-font-specification:Sawasdee" /></text>
    <g
       id="g3221"
       transform="matrix(2.0308671,0,0,2.0308671,-108.6189,-52.954811)">
      <rect
         ry="0"
         rx="250.56718"
         y="52.708336"
         x="113.79033"
         height="16.981731"
         width="43.139229"
         id="rect3159"
         style="color:#000000;fill:#afc6e9;fill-opacity:1;fill-rule:nonzero;stroke:none;stroke-width:1.85602725;marker:none;visibility:visible;display:inline;overflow:visible;enable-background:accumulate" />
      <rect
         ry="16.981853"
         rx="168.16589"
         y="52.708275"
         x="148.43332"
         height="16.981853"
         width="16.981853"
         id="rect3157"
         style="color:#000000;fill:#afc6e9;fill-opacity:1;fill-rule:nonzero;stroke:none;stroke-width:1.85602725;marker:none;visibility:visible;display:inline;overflow:visible;enable-background:accumulate" />
    </g>
    <g
       id="g3426"
       transform="matrix(0.25102315,0,0,0.57107341,85.541542,-38.209248)"
       style="fill:#ffffff">
      <rect
         ry="3.2127836"
         rx="0"
         y="169.15192"
         x="172.58426"
         height="3.5955062"
         width="439.67899"
         id="rect3227-7"
         style="color:#000000;fill:#ffffff;fill-opacity:1;fill-rule:nonzero;stroke:none;stroke-width:1.85602725;marker:none;visibility:visible;display:inline;overflow:visible;enable-background:accumulate" />
      <rect
         ry="3.2127836"
         rx="0"
         y="181.47935"
         x="200.32103"
         height="3.5955062"
         width="439.67899"
         id="rect3227-7-5"
         style="color:#000000;fill:#ffffff;fill-opacity:1;fill-rule:nonzero;stroke:none;stroke-width:1.85602725;marker:none;visibility:visible;display:inline;overflow:visible;enable-background:accumulate" />
      <rect
         ry="3.2127836"
         rx="0"
         y="193.80681"
         x="163.33867"
         height="3.5955062"
         width="439.67899"
         id="rect3227-7-5-0"
         style="color:#000000;fill:#ffffff;fill-opacity:1;fill-rule:nonzero;stroke:none;stroke-width:1.85602725;marker:none;visibility:visible;display:inline;overflow:visible;enable-background:accumulate" />
      <rect
         ry="3.2127836"
         rx="0"
         y="208.18883"
         x="118.13804"
         height="3.5955062"
         width="439.67899"
         id="rect3227-7-5-0-3"
         style="color:#000000;fill:#ffffff;fill-opacity:1;fill-rule:nonzero;stroke:none;stroke-width:1.85602725;marker:none;visibility:visible;display:inline;overflow:visible;enable-background:accumulate" />
    </g>
    <text
       xml:space="preserve"
       style="font-size:53.7148819px;font-style:normal;font-weight:normal;line-height:125%;letter-spacing:0px;word-spacing:0px;fill:#0044aa;fill-opacity:1;stroke:none;font-family:Sans"
       x="75.314423"
       y="83.575706"
       id="text3153"
       sodipodi:linespacing="125%"><tspan
         sodipodi:role="line"
         id="tspan3155"
         x="75.314423"
         y="83.575706"
         style="font-style:italic;font-variant:normal;font-weight:bold;font-stretch:normal;fill:#0044aa;font-family:Pothana2000;-inkscape-font-specification:Pothana2000 Bold Italic">pj</tspan></text>
    <text
       xml:space="preserve"
       style="font-size:77.88604736000000628px;font-style:normal;font-weight:normal;line-height:125%;letter-spacing:0px;word-spacing:0px;fill:#cccccc;fill-opacity:1;stroke:none;font-family:Sans"
       x="246.58221"
       y="95.743111"
       id="text3229"
       sodipodi:linespacing="125%"><tspan
         sodipodi:role="line"
         id="tspan3231"
         x="246.58221"
         y="95.743111"
         style="font-style:italic;font-variant:normal;font-weight:bold;font-stretch:normal;fill:#cccccc;font-family:Symbol;-inkscape-font-specification:Symbol Bold Italic">Portal</tspan></text>
    <rect
       style="color:#000000;fill:#0044aa;fill-opacity:1;fill-rule:nonzero;stroke:none;stroke-width:1.85602725;marker:none;visibility:visible;display:inline;overflow:visible;enable-background:accumulate"
       id="rect3227"
       width="439.67899"
       height="3.5955062"
       x="75.372131"
       y="96.778488"
       rx="0"
       ry="3.2127836" />
    <text
       xml:space="preserve"
       style="font-size:13.46260834px;font-style:normal;font-weight:normal;line-height:125%;letter-spacing:0px;word-spacing:0px;fill:#000000;fill-opacity:1;stroke:none;font-family:Sans"
       x="75.703041"
       y="113.20332"
       id="text3342"
       sodipodi:linespacing="125%"><tspan
         sodipodi:role="line"
         x="75.703041"
         y="113.20332"
         id="tspan3350">Come fly with Paul Burden in the clouds</tspan></text>
    <g
       id="g3985">
      <rect
         ry="4.1699252"
         y="151.58852"
         x="333.36887"
         height="180"
         width="180"
         id="rect2853"
         style="fill:#ffffff;fill-opacity:1;stroke:none" />
      <g
         transform="translate(-121.83307,-0.00513319)"
         id="g3974">
        <path
           sodipodi:type="arc"
           style="fill:url(#radialGradient3983);fill-opacity:1;stroke:none"
           id="path3950"
           sodipodi:cx="214.70305"
           sodipodi:cy="249.0235"
           sodipodi:rx="68.828247"
           sodipodi:ry="68.828247"
           d="m 283.5313,249.0235 c 0,38.01279 -30.81546,68.82825 -68.82825,68.82825 -38.01279,0 -68.82825,-30.81546 -68.82825,-68.82825 0,-38.01279 30.81546,-68.82825 68.82825,-68.82825 38.01279,0 68.82825,30.81546 68.82825,68.82825 z"
           transform="translate(315.84751,-9.327448)" />
        <g
           id="g3907"
           transform="translate(172.08186,7.8089888)">
          <path
             transform="translate(-1.2261611,-4.2109117)"
             d="m 401.66935,247.99622 c 0,23.26155 -18.85722,42.11877 -42.11878,42.11877 -23.26156,0 -42.11878,-18.85722 -42.11878,-42.11877 0,-23.26156 18.85722,-42.11878 42.11878,-42.11878 23.26156,0 42.11878,18.85722 42.11878,42.11878 z"
             sodipodi:ry="42.118778"
             sodipodi:rx="42.118778"
             sodipodi:cy="247.99622"
             sodipodi:cx="359.55057"
             id="path2861"
             style="fill:#ffe680;fill-opacity:1;stroke:none"
             sodipodi:type="arc" />
          <path
             inkscape:connector-curvature="0"
             d="m 303.51271,249.97513 c 0.46338,-1.48348 1.59752,-2.59126 2.93135,-3.35452 23.92813,-13.69238 15.10299,-11.12368 26.17315,-14.08891 6.84026,-2.18595 14.0314,-2.78183 21.16261,-3.12691 5.53622,-0.0831 11.29544,0.17151 16.26267,2.89844 0.67001,0.36783 1.27715,0.84002 1.91576,1.26002 2.88588,2.28502 3.78791,5.42262 4.69443,8.80615 0.0954,0.14371 0.23321,0.59522 0.28619,0.43111 0.0981,-0.30328 0.16836,-1.08701 -0.1188,-0.94882 -7.65408,3.68259 -15.01498,7.94617 -22.55465,11.85766 -0.43203,0.2241 0.8502,-0.48357 1.22611,-0.79267 0.9262,-0.76158 2.81405,-2.82304 3.52799,-3.57751 2.78827,-2.93975 5.79906,-5.75392 9.29921,-7.84435 6.0465,-3.61118 19.60748,-12.5465 29.37769,-16.3976 1.64738,-0.64932 3.34429,-1.16495 5.01647,-1.74742 4.53218,-1.38223 9.14855,-2.50825 13.81702,-3.32476 1.92293,-0.33633 4.48392,-0.70565 6.47782,-0.75542 0.84515,-0.0211 1.68962,0.0634 2.53442,0.0952 2.90772,0.46858 5.8334,0.91065 8.60684,1.92754 0,0 -21.68684,14.60819 -21.68684,14.60819 l 0,0 c -2.40365,-0.90522 -4.91041,-1.54606 -7.48511,-1.68692 -0.72853,-0.0148 -1.4571,-0.0596 -2.18564,-0.0443 -6.3477,0.1339 -12.58983,1.75018 -18.59969,3.66809 -1.64639,0.64724 -3.32268,1.22308 -4.93919,1.9417 -4.71604,2.09652 -26.12362,14.04023 11.45459,-7.07424 1.23272,-0.69263 -2.40111,1.49828 -3.54544,2.32884 -0.98225,0.71293 -1.93296,1.47405 -2.8262,2.29578 -0.75711,0.69651 -1.40922,1.49918 -2.11381,2.24876 -1.52851,1.82024 -1.46807,1.65605 -2.70048,3.42592 -0.25165,0.36126 -0.34222,0.88738 -0.72581,1.10329 -7.96864,4.48492 -20.27705,19.45857 -24.87886,11.55688 -0.16998,-0.29213 -0.18683,-0.64979 -0.28021,-0.97469 -0.41422,-2.88202 -0.84903,-5.3576 -3.19758,-7.36158 -0.50888,-0.35255 -0.99044,-0.74816 -1.52661,-1.05765 -4.45279,-2.57031 -9.77245,-2.54692 -14.75175,-2.42965 -1.30972,0.0951 -2.62213,0.15865 -3.92918,0.28531 -5.98679,0.58019 -11.91682,1.77789 -17.54356,3.93585 -9.75903,4.16099 -2.75571,1.29467 17.9737,-10.84102 0.36771,-0.21528 -0.75865,0.38841 -1.13337,0.59122 -0.28692,0.15528 -0.5675,0.32192 -0.85127,0.48288 -0.20843,0.0935 -0.42173,0.17723 -0.62563,0.28046 -0.11678,0.0591 -0.22291,0.13704 -0.33424,0.20558 0,0 -24.20414,11.19407 -24.20414,11.19407 z"
             id="path3125"
             style="color:#000000;fill:#5f8dd3;fill-opacity:1;fill-rule:nonzero;stroke:none;stroke-width:1.85602725;marker:none;visibility:visible;display:inline;overflow:visible;enable-background:accumulate" />
        </g>
        <g
           id="g3869"
           transform="translate(157.15668,0.2513669)">
          <path
             inkscape:original-d="M 315.25194,308.44513 C 357.82387,267.95478 417.09533,250.80952 471.52488,264.9967"
             inkscape:path-effect="#path-effect3809"
             id="path3807"
             d="m 311.80609,304.82213 6.8917,7.246 c 19.56172,-19.76372 44.02212,-35.04515 70.91177,-43.47594 26.18975,-8.21227 54.75328,-9.82538 81.91532,-3.59549 -26.74714,-7.82166 -55.80913,-8.01978 -83.25083,-1.15521 -28.15778,7.0441 -54.59619,21.33678 -76.46796,40.98064 z"
             style="fill:#008000;fill-rule:evenodd;stroke:none" />
          <path
             d="m 424.04738,276.9238 c -9.88805,1.68616 -19.64866,4.06756 -29.35636,6.57815 -12.88452,3.50565 -25.33287,8.38172 -37.72108,13.31811 -3.09149,1.38845 -6.08277,2.9689 -9.06117,4.57899 -0.75253,0.40681 -3.00627,1.6335 -2.26553,1.2056 23.5216,-13.58761 27.50098,-16.1047 19.44795,-11.06292 -0.27363,0.20477 -0.52554,0.44235 -0.82089,0.61431 -25.54115,14.87121 -37.20949,22.82674 -1.25525,-4.08372 0.60715,-0.45443 1.4488,-0.44923 2.17729,-0.66004 1.31434,-0.38035 2.63979,-0.7221 3.95092,-1.11338 1.81775,-0.54248 3.62328,-1.12512 5.43491,-1.68767 11.13796,-3.84994 22.16048,-8.03765 33.38116,-11.64439 1.7332,-0.90257 3.86393,-0.71201 5.6305,-1.52439 0.36615,-0.16838 1.18939,-1.08147 0.85867,-0.85116 -7.59261,5.28748 -14.91607,10.96686 -22.65845,16.03248 -0.57124,0.37374 -1.36158,0.10587 -2.04381,0.12951 -1.41952,0.0492 -2.84012,0.0593 -4.26019,0.0889 -11.98391,0.87175 -23.80899,3.13036 -35.33663,6.47617 -1.35897,0.36468 -4.80442,1.40715 -6.46075,1.48016 -3.04707,0.13431 -3.8705,-3.33569 -1.41313,-4.83602 8.16532,-4.98526 16.65306,-9.42212 24.97959,-14.13318 3.86929,-1.5566 7.99118,-2.43297 11.84457,-4.02738 2.69802,-1.11636 1.07059,-1.04263 3.04887,-0.91877 0.0121,1.40147 0.58935,2.91664 0.0363,4.20442 -0.43537,1.01366 -1.78677,1.29448 -2.67754,1.94531 -0.84969,0.6208 -1.72097,1.21361 -2.54383,1.86955 -0.51835,0.41321 -0.96858,0.90612 -1.47491,1.33398 -0.0469,0.0397 -0.18485,0.12036 -0.17445,0.0598 0.0778,-0.45329 0.26085,-0.88208 0.39128,-1.32312 7.9457,-1.3133 15.74448,-3.38184 23.34464,-6.02826 0.77133,-0.34258 3.01305,-1.50063 2.31399,-1.02774 -7.42358,5.02174 -15.11722,9.63787 -22.51717,14.69436 -0.42301,0.28905 -0.38385,1.07731 -0.85578,1.2767 -1.10549,0.46706 -2.37154,0.37135 -3.55234,0.5857 -6.1689,1.11987 -4.77936,0.89185 -11.21036,2.54167 -1.97321,0.5375 -3.94641,1.07499 -5.91962,1.61249 -1.65423,0.48622 -3.29924,1.00494 -4.96267,1.45867 -1.03656,0.28274 -2.15193,1.18405 -3.1348,0.75006 -1.09213,-0.48224 -2.93958,-2.31911 -1.95815,-2.99888 19.22357,-13.31484 18.74264,-12.55061 33.07858,-15.22419 13.33471,-2.49429 26.29429,-6.56034 39.45164,-9.7949 10.12676,-1.54199 3.09242,-0.64245 -21.08139,16.51391 -0.29287,0.20785 -0.69738,-0.21977 -1.05641,-0.21157 -1.10381,0.0252 -3.4547,0.63635 -4.66583,0.80904 -3.89031,0.50196 -7.81103,0.55828 -11.72676,0.60586 -1.03049,-0.22263 -6.18319,0.59368 -6.8099,-0.0472 -6.77397,-6.9274 15.0768,-12.27798 23.38365,-17.26514 1.00802,-0.23323 2.01864,-0.45553 3.02408,-0.69969 1.28264,-0.31147 2.57646,-0.58491 3.83983,-0.96713 1.19089,-0.36029 4.58315,-1.89464 3.5143,-1.25777 -6.9232,4.12511 -14.32214,7.43701 -21.12812,11.75279 -0.44035,0.27923 0.0911,1.03885 0.13659,1.55828 -0.57667,0.087 -1.15333,0.17405 -1.73,0.26108 -5.19751,0.10502 -10.5071,0.65411 -15.50133,2.18721 -0.82422,0.25301 -1.59523,0.65471 -2.39284,0.98207 7.52558,-4.28628 15.05116,-8.57256 22.57674,-12.85884 -0.0264,-0.61962 -0.59164,-1.50944 -0.0793,-1.85884 0.69138,-0.47146 1.66663,0.15652 2.50195,0.20677 1.27455,0.0767 2.55011,0.14389 3.82661,0.17399 4.32072,0.10187 8.63786,-0.0606 12.95417,-0.2274 5.37412,-0.25548 10.72864,-0.87093 16.07948,-1.42888 3.77488,-0.37325 7.60016,-0.56119 11.33655,-1.25568 1.43545,-0.19235 2.87478,-0.61271 4.14604,-1.32564 0.30581,-0.1715 1.1663,-0.77668 0.8613,-0.60375 -7.25407,4.11287 -28.96117,16.54831 -21.71325,12.4246 8.03337,-4.63458 16.06674,-9.26917 24.10011,-13.90376 0.29278,-0.17861 1.17555,-0.70702 0.87835,-0.53585 -7.46539,4.29965 -30.05804,16.83496 -22.38318,12.92145 25.75476,-13.1327 15.10074,-12.1016 26.11885,-14.13055 1.75182,-0.59256 2.6047,0.95835 2.4142,3.18958 -0.0575,0.67382 -0.91813,1.00155 -1.45093,1.41804 -0.82496,0.64488 -1.70193,1.22585 -2.60633,1.75358 -8.33674,4.86459 -16.74063,9.6132 -25.11094,14.4198 -5.96434,2.82851 -11.79227,4.1783 -18.31654,4.74851 -5.04426,0.21657 -10.05149,0.89746 -15.08251,1.29603 -3.1868,0.0962 -6.23711,0.8772 -9.11739,2.21037 -1.54448,0.81844 -3.30143,0.9263 -4.93882,1.39014 -0.56452,0.15992 -1.08095,0.45993 -1.6375,0.64566 -5.20215,1.73608 1.87788,-0.92572 -4.02584,1.36041 -3.85154,1.62785 -7.45433,3.783 -11.24841,5.53115 -0.90845,0.41857 -4.9322,2.04392 -5.90385,2.43927 -5.27184,2.41422 -10.87923,3.96599 -16.2804,6.05256 -1.72957,0.80653 -3.64886,1.11315 -5.39802,1.86188 -1.4629,0.62619 -2.46791,1.16532 -4.02902,1.65964 -1.22762,0.60598 -4.23597,2.86437 -4.89693,0.20001 -0.23282,-0.93854 0.0308,-1.93373 0.0462,-2.90059 2.23206,-2.44109 4.80684,-4.68024 7.6751,-6.3576 23.51485,-13.75144 16.07793,-10.20145 26.34447,-15.01417 1.52577,-0.76499 3.18009,-1.34495 4.67928,-2.16085 0.34977,-0.19035 1.30596,-0.91193 0.97892,-0.68473 -22.85093,15.87507 -21.3749,6.55401 -22.62623,17.04494 -0.6917,0.29184 -1.37472,0.60517 -2.0751,0.87551 -1.03728,0.40038 -2.10349,0.72401 -3.13622,1.13602 -1.66484,0.6642 -4.81728,2.20212 -6.58878,2.68325 -0.61741,0.16768 -1.48347,0.64254 -1.912,0.16748 -0.7976,-0.88419 -0.68276,-2.2816 -1.02413,-3.4224 12.37918,-10.1632 27.40643,-16.99849 42.38464,-22.46847 4.71468,-1.80704 9.41857,-3.57458 14.23731,-5.07248 2.74041,-0.77628 5.25951,-2.16865 7.9908,-2.96496 1.81409,-0.5289 2.67596,-0.6067 4.55561,-0.91053 4.83075,-0.68697 9.72532,-0.54825 14.57081,-0.99561 3.68357,-0.21202 7.28138,-0.89419 10.91369,-1.47559 0.48883,-0.067 0.98321,-0.10164 1.46648,-0.2011 1.51055,-0.3109 2.94101,-0.9556 4.44886,-1.29107 1.61406,-0.3591 3.24902,-0.61792 4.86718,-0.95807 2.54798,-0.56452 5.15746,-0.81243 7.6487,-1.62396 0.54723,-0.17827 2.09748,-0.93789 1.60063,-0.6474 -23.4559,13.71365 -25.38581,4.64077 -22.32718,15.13963 -3.33786,-0.34549 -6.69259,-0.33186 -10.04337,-0.38191 -3.11392,-0.0128 -6.22513,0.10733 -9.33829,0.14034 -2.32773,0.0584 -4.71767,-0.37308 -6.8365,0.74642 -2.17586,0.57686 -4.20057,1.57429 -6.38674,2.11794 -0.31831,0.0484 -0.64063,0.0754 -0.95493,0.14532 -0.65112,0.14481 -1.38925,0.3999 -1.95718,0.75296 -0.31639,0.19668 -1.20204,0.87534 -0.87793,0.69164 17.70047,-10.03299 29.58921,-17.27673 20.77512,-11.9168 -9.24423,5.71631 -18.7961,10.92844 -28.22414,16.32383 -2.24243,1.28327 -4.53724,2.33376 -6.91178,3.34463 -3.62097,1.45706 -7.22085,3.00534 -11.04864,3.81633 -1.90259,0.7082 -3.93777,0.7626 -5.90539,1.13321 -0.90414,0.17029 -1.78426,0.45018 -2.68029,0.65894 -1.08364,0.54545 -2.31025,0.73508 -3.41199,1.22945 -0.30268,0.13581 -1.15533,0.65278 -0.86708,0.48855 22.68864,-12.92742 30.74098,-15.62736 22.0196,-12.66271 -0.17047,-0.45096 -0.52891,-0.87109 -0.51142,-1.35288 0.0307,-0.84675 1.63437,-0.53169 2.48145,-0.55102 3.66029,-0.0835 7.18668,-0.50251 10.82081,-0.9743 5.81154,-1.16368 11.70884,-1.93818 17.49195,-3.24784 1.78293,-0.40377 4.93649,-1.33939 6.75054,-1.86313 0.82324,0.32238 6.18399,-2.59707 6.90099,-2.48605 2.19997,0.34064 1.45273,3.43892 0.89425,4.46281 -0.50756,0.93051 -1.63449,1.34994 -2.45174,2.02491 -0.63962,-0.33257 -4.17807,3.8162 -4.80075,4.09296 -0.13483,0.0599 -0.16033,-0.25458 -0.19261,-0.39855 -0.10889,-0.48564 -0.41592,-1.01495 -0.2276,-1.47565 0.14077,-0.34439 0.67861,-0.30521 1.01792,-0.45781 1.85899,-0.1519 7.24324,-2.69876 8.67673,-1.13767 0.52787,0.57487 0.67768,1.40615 1.01652,2.10923 0.0213,0.21114 0.15968,0.82274 0.0638,0.63342 -0.21174,-0.41811 -0.43821,-0.87272 -0.4222,-1.34111 0.0178,-0.52135 0.34566,-0.98438 0.51849,-1.47657 -6.66075,3.84008 -13.31022,7.69978 -19.98223,11.52024 -1.13709,0.6511 2.25194,-1.34027 3.377,-2.01194 1.17793,-0.70323 2.35463,-1.40852 3.53194,-2.11277 10.30878,-6.671 20.59249,-12.55478 31.69227,-18.34768 0.92954,-0.48512 2.0621,-0.38495 3.0833,-0.62274 1.17683,-0.27402 2.33888,-0.60808 3.50832,-0.91213 5.01922,-0.95241 9.66466,-3.41204 11.24623,3.09929 0.13964,0.39425 0.66494,3.12547 -0.20213,2.94367 -0.25863,-0.0542 -0.14991,-0.50696 -0.23537,-0.75702 -0.3149,-0.92131 -0.64373,-1.83781 -0.96559,-2.75671 7.52066,-4.70248 18.87922,-10.68443 -17.36165,9.9222 -0.66976,0.38082 1.30786,-0.81492 1.95509,-1.23289 1.04566,-0.6753 2.07503,-1.3755 3.11288,-2.06273 1.12128,-0.7351 2.22753,-1.48651 3.36788,-2.19163 0,0 25.15697,-9.76115 25.15697,-9.76115 l 0,0 c -1.21537,0.77099 -2.49657,1.42015 -3.6548,2.28053 -1.81911,1.12052 -3.5689,2.41751 -5.40505,3.49602 -8.95441,5.2596 -18.78566,11.62642 -28.62287,16.30392 -0.86726,-0.72139 -1.85104,-1.32219 -2.60179,-2.16415 -0.5754,-0.64531 -0.2822,-1.15747 0.36196,-1.07519 0.57786,0.0738 0.95766,0.73772 0.9939,-0.23346 -0.004,-0.24378 -0.0655,-0.49316 -0.0134,-0.73134 0.0264,-0.12082 0.25421,-0.16386 0.23611,-0.28621 -0.0799,-0.54032 -1.04416,-0.42116 -1.58983,-0.39693 -2.15101,0.0955 -3.88817,0.64517 -6.00116,1.15235 -11.6065,3.43296 -16.70435,7.93202 13.38721,-9.6356 0.69242,-0.40424 -1.37055,0.83267 -2.04796,1.2616 -5.4199,3.43179 0.48996,-0.19135 -5.75398,3.59154 -10.52864,6.26956 -20.24739,12.52685 -31.42725,18.46371 -0.71874,0.38167 -1.69206,0.38976 -2.44036,0.0699 -1.68768,-0.7213 -1.43071,-1.20595 -1.18318,-2.08316 0.31771,0.28467 0.739,0.48507 0.95313,0.85402 0.0708,0.12193 -0.27873,0.0429 -0.41721,0.0694 -0.47647,0.0909 -0.95525,0.17179 -1.42749,0.28263 -3.19228,0.74928 -0.80085,0.31205 -4.09283,1.02035 -0.63622,0.13689 -1.2787,0.24291 -1.91805,0.36437 -0.60453,-0.0189 -1.27195,0.21238 -1.81359,-0.0568 -1.04482,-0.5192 -2.58109,-1.91345 -2.04559,-3.36955 0.44617,-1.2132 4.49288,-3.85086 5.3905,-4.73927 0.64317,-0.48654 1.12927,-1.35973 1.92953,-1.45961 0.68475,-0.0855 1.2359,0.61989 1.81703,0.99202 0.31204,0.19982 0.98685,0.37158 0.85027,0.71603 -0.16098,0.40597 -0.84794,0.2107 -1.26678,0.33438 -5.13734,1.51694 0.45899,-0.0144 -5.00592,1.44292 -7.84523,1.8034 -15.8139,2.96601 -23.73656,4.3738 -3.49321,0.55332 -5.36967,0.90251 -8.81392,1.26103 -2.02164,0.21044 -6.2858,0.98006 -8.00457,-0.68404 -0.60051,-0.58141 -0.79048,-1.47301 -1.18573,-2.20951 5.1332,-9.53763 18.49054,-13.21423 28.9484,-15.83202 2.83072,-0.56466 5.69516,-0.95798 8.46633,-1.80282 3.52435,-1.01596 6.94561,-2.3822 10.30944,-3.8362 2.39423,-1.12262 2.07427,-0.92968 4.48627,-2.24588 0.78375,-0.42768 3.10796,-1.7593 2.33576,-1.31107 -36.29715,21.06891 -24.92955,14.71065 -17.33436,9.93378 9.45292,-6.09853 18.57696,-13.38291 29.578,-15.99634 2.09597,-0.74787 4.20767,-1.44259 6.35348,-2.03509 2.39668,-0.20273 4.79946,-0.0538 7.20194,-0.10247 3.00448,0.0165 6.00694,0.11415 9.01165,0.1381 3.71468,0.0183 7.50078,0.0104 11.14624,0.76892 0.70209,0.86775 2.99277,1.92499 2.10626,2.60324 -18.90036,14.4604 -17.82524,12.44273 -32.4182,15.55821 -3.81449,0.93963 -7.53039,2.32131 -11.45502,2.72288 -3.55051,0.53215 -7.1169,0.84739 -10.70326,1.03999 -4.78049,0.22797 -9.60498,0.21741 -14.30507,1.24096 -4.28527,1.09026 -8.31596,2.86818 -12.52921,4.1941 -4.51678,1.43342 -8.94961,3.11751 -13.45097,4.59867 -3.73372,1.3271 -7.38125,2.75802 -10.94331,4.50665 -1.28577,0.63119 -5.04432,2.713 -3.81318,1.98094 18.15687,-10.7964 26.29433,-14.12904 17.52988,-10.4448 -0.73278,-0.6508 -1.53333,-1.2325 -2.19835,-1.9524 -0.0898,-0.0972 0.27195,0.0456 0.39712,0.003 1.02448,-0.35251 2.02402,-0.77412 3.0281,-1.18114 2.45653,-0.9958 4.53438,-1.92142 6.97731,-2.96127 0.93532,-0.39813 1.87412,-0.78803 2.81119,-1.18204 0.80331,0.19643 3.04471,0.0592 2.40993,0.5893 -13.2467,11.06129 -16.47253,13.30018 -27.49003,18.32325 -8.51743,4.4139 -3.87917,2.04391 18.95075,-11.14655 0.69773,-0.40312 -1.36622,0.85488 -2.0478,1.28474 -1.64509,1.03755 -2.50288,1.52166 -4.00499,2.73807 -0.46811,0.37908 -0.89061,0.81126 -1.33592,1.21689 -0.31753,-0.20757 -1.93868,-1.029 -2.04525,-1.76607 -0.0228,-0.1579 2.97426,-1.35273 3.32639,-1.41751 2.94128,-1.17123 5.92085,-2.19799 8.94095,-3.15611 5.35858,-1.78454 10.72771,-3.56232 15.88185,-5.89135 5.93173,-2.48447 11.5497,-5.60785 17.47185,-8.10923 3.64065,-1.31801 7.37687,-2.30817 10.9804,-3.72715 3.09441,-0.97488 6.2566,-1.51701 9.51274,-1.49579 4.84285,-0.24259 9.67994,-0.59213 14.50983,-1.021 6.10455,-0.82533 12.07023,-2.35786 17.49395,-5.38277 -6.41048,3.73852 -12.80471,7.50505 -19.23145,11.21555 -0.70042,0.40439 1.3561,-0.8825 2.05098,-1.29633 0.36363,-0.21656 0.75281,-0.79978 1.12242,-0.59357 1.61946,0.90351 2.68533,2.33134 1.20056,2.58976 -0.58316,0.21252 -2.22083,1.10638 -1.68321,0.79622 7.49344,-4.32317 29.9111,-17.39952 22.47945,-12.97099 -7.95089,4.73795 -16.02054,9.27374 -24.03732,13.89933 -0.31111,0.1795 -1.25667,0.69613 -0.94606,0.51578 7.45236,-4.32708 14.91441,-8.63745 22.37162,-12.95618 -9.41909,6.40436 -18.58515,14.10104 -29.96971,15.30726 -3.80039,0.40469 -7.60208,0.82125 -11.41476,1.08695 -5.04984,0.231 -10.09189,0.78422 -15.15446,0.56452 -4.31213,-0.01 -8.6194,0.0346 -12.93076,0.1216 -0.26005,0.005 -7.32049,0.24892 -8.01608,-0.0515 -1.2135,-0.52412 -1.95138,-1.78361 -2.92707,-2.67541 7.83007,-4.63848 15.55006,-9.46803 23.49022,-13.91544 0.55733,-0.31217 1.26191,-0.19959 1.89247,-0.30181 1.13177,-0.18347 2.26131,-0.38088 3.3945,-0.55527 4.30991,-0.66328 8.6395,-1.25885 13.00408,-1.39779 1.16326,0.22322 2.51931,-0.009 3.48978,0.66967 0.91898,0.64308 2.55255,2.25821 1.65443,2.93012 -7.36652,5.51112 -15.84176,9.36809 -23.93657,13.73983 -1.02273,0.55234 -2.23114,0.65304 -3.34271,0.99282 -4.93714,1.50913 -3.09248,0.87524 -7.6834,2.74484 7.04654,-4.42502 14.52266,-8.23021 21.13961,-13.27504 0.60307,-0.45978 -1.2666,-0.94762 -1.57749,-1.63931 -0.12077,-0.26867 0.58517,0.0737 0.87946,0.0863 1.75027,0.0753 3.50708,-9.5e-4 5.25774,0.0104 3.89249,-0.12281 7.79833,-0.31396 11.63577,-1.02275 1.63579,-0.32175 3.44045,-0.51139 5.03489,-0.99467 0.38836,-0.11771 1.42194,-0.76719 1.10177,-0.51786 -21.35828,16.63179 -12.84219,18.76405 -21.90456,16.40563 -3.23648,0.0564 -6.57643,0.66062 -9.73217,1.28481 -9.03747,1.78757 -17.94304,4.20092 -26.82554,6.62157 -19.37797,6.24303 -1.06779,1.08412 10.7696,-9.14432 0.90267,-0.77997 -2.29383,-1.31269 -2.59202,-2.46779 -0.16067,-0.62239 1.29216,-0.003 1.92487,-0.11659 2.24542,-0.40263 8.37837,-2.05511 10.18412,-2.52516 3.86161,-1.02386 8.41828,-2.25023 12.30601,-3.21018 1.53774,-0.37969 3.04329,-1.03045 4.62628,-1.08482 1.21979,-0.0419 4.49732,0.007 3.57232,0.80325 -16.06703,13.83063 -14.00475,13.0661 -24.03107,15.73415 -3.81484,1.0636 -7.65062,2.04129 -11.49556,2.99115 -1.07705,0.26608 -8.50838,2.07395 -9.62734,2.25484 -1.28804,0.20823 -2.60088,0.21225 -3.90132,0.31837 -0.92252,-0.67234 -2.1382,-1.06466 -2.76754,-2.01702 -1.3096,-1.98179 3.40405,-4.8557 4.40228,-5.60682 0.67873,-0.51071 1.19917,-1.62121 2.0429,-1.52317 1.10279,0.12814 1.74254,1.37617 2.61381,2.06425 0.6903,0.37732 0.24023,0.0685 -1.37182,0.58327 -4.02356,1.28471 -8.06333,2.59602 -11.87188,4.44005 6.79643,-3.97242 13.74473,-7.69572 20.38927,-11.91728 0.43833,-0.27849 -1.08015,0.15766 -1.55722,-0.0475 -0.59672,-0.25664 -1.10867,-0.73213 -1.4856,-1.26116 -0.12367,-0.17356 0.42296,0.0814 0.63567,0.0683 2.00595,-0.12391 3.19612,-0.47817 5.28706,-0.91667 11.73214,-2.53548 23.57931,-4.41367 35.46682,-6.06148 1.76304,-0.24313 3.51803,-0.55421 5.28912,-0.72937 1.15292,-0.11403 4.3239,-0.92343 3.47294,-0.13723 -6.55296,6.05426 -14.07989,10.96076 -21.11983,16.44115 -0.17343,-0.0575 -0.33831,-0.1887 -0.5203,-0.17249 -0.89662,0.0799 -4.26085,0.9535 -4.81834,1.09077 -10.93913,3.03566 -21.61629,6.90482 -32.24522,10.87749 -2.03773,0.7495 -4.08823,1.46517 -6.1132,2.24849 -1.60231,0.61983 -3.2013,1.2524 -4.76673,1.96022 -14.01367,6.3364 26.68811,-5.20006 17.58581,-15.15034 -5.73014,-6.26397 -32.13174,18.3341 -22.00963,12.81498 11.13742,-8.11945 23.69893,-14.63067 36.45479,-19.92939 11.92693,-4.30168 23.93389,-8.41932 36.16142,-11.78997 11.02336,-2.97126 22.05135,-5.92305 32.99978,-9.16192 0,0 -21.81609,16.51794 -21.81609,16.51794 z"
             id="path3861"
             style="fill:#008000;fill-opacity:1;stroke:none" />
        </g>
      </g>
    </g>
  </g>
</svg>
